<svg version="1.1" xmlns="http://www.w3.org/2000/svg" x="0px" y="0px" width="473.499px" height="56.833px" viewBox="0 0 473.499 56.833" xml:space="preserve" stroke="#FAFAFA" stroke-miterlimit="10" fill="#FAFAFA">
	<path d="M42.765,2.296v9.144l-1.949-1.296c-2.837-1.823-6.469-2.736-10.895-2.736
		c-6.493,0-11.737,1.87-15.729,5.607c-3.993,3.737-5.988,8.673-5.988,14.806c0,6.325,2.152,11.488,6.458,15.49
		c4.306,4.001,9.85,6.001,16.633,6.001c1.25,0,2.548-0.119,3.896-0.36c1.347-0.239,3.151-0.695,5.412-1.367V32.536
		c0-0.863-0.156-1.667-0.468-2.412c-0.313-0.744-1.092-1.715-2.34-2.916h10.8v25.848l-3.672,0.864
		c-4.705,0.911-9.241,1.367-13.608,1.367c-5.952,0-11.016-0.862-15.192-2.588c-4.752-2.108-8.544-5.32-11.376-9.635
		c-2.833-4.314-4.248-9.084-4.248-14.31c0-4.601,1.032-8.868,3.096-12.799c2.063-3.931,5.015-7.19,8.856-9.779
		c2.639-1.821,5.555-3.14,8.748-3.954C24.393,1.409,28.269,1,32.829,1C35.9,1,39.212,1.432,42.765,2.296z"/>
	<path d="M53.46,53.993c2.016-1.104,3.383-2.017,4.103-2.736l1.8-2.448l16.921-41.04
		c0.288-0.671,0.432-1.368,0.432-2.088s-0.576-1.919-1.728-3.6h11.52l18.802,46.723l0.565,1.014l1.224,1.439
		c0.432,0.432,0.947,0.853,1.548,1.26c0.6,0.408,1.476,0.9,2.628,1.477H94.573c1.775-1.15,2.664-2.373,2.664-3.668
		c0-0.623-0.078-1.126-0.233-1.51L91.206,33.76H72.032l-5.805,15.027c-0.111,0.387-0.167,0.867-0.167,1.445
		c0,1.351,0.816,2.603,2.448,3.76H53.46z M81.74,8.708l-7.619,19.797h15.107L81.74,8.708z"/>
	<path d="M116.82,53.993c0.911-0.576,1.584-1.032,2.016-1.369
		c0.432-0.334,0.792-0.719,1.08-1.151c0.288-0.433,0.515-0.875,0.684-1.332c0.168-0.456,0.299-0.899,0.396-1.332l5.976-41.112
		l0.072-0.432c0-1.008-0.157-1.811-0.468-2.412c-0.312-0.6-1.092-1.523-2.34-2.772h12.888l16.125,38.508l15.01-38.496l12.138-0.013
		c-0.864,1.105-1.44,1.993-1.728,2.664c-0.288,0.673-0.432,1.488-0.432,2.448l0.072,0.432l4.912,41.191l0.416,1.002
		c0.24,0.672,0.515,1.188,0.828,1.547c0.312,0.36,0.731,0.745,1.26,1.152c0.528,0.408,1.32,0.9,2.376,1.477h-14.904
		c1.44-1.44,2.16-3.074,2.16-4.9l0.026-0.287l-3.861-38.037l-17.19,44.087c-0.907-0.434-1.504-0.758-1.79-0.975
		c-0.286-0.215-0.692-0.612-1.216-1.189s-1.05-1.299-1.574-2.164l-1.146-2.383l-1.263-2.646L132.62,10.896l-5.005,37.923
		l-0.066,0.286c0,1.056,0.191,1.905,0.576,2.552c0.383,0.646,1.152,1.426,2.304,2.336H116.82z"/>
	<path d="M193.043,53.993c0.784-0.528,1.36-0.996,1.728-1.404
		c0.367-0.407,0.698-0.852,0.992-1.332c0.491-0.768,0.736-1.584,0.736-2.448V7.624c0-1.055-0.156-1.896-0.468-2.52
		c-0.313-0.623-1.092-1.631-2.34-3.024h27.433v10.008c-0.921-1.487-1.804-2.531-2.651-3.132c-0.847-0.6-1.852-0.9-3.013-0.9h-2.904
		h-8.568v15.192h12.456v8.136c-0.816-1.104-1.764-1.872-2.844-2.304s-2.628-0.648-4.644-0.648h-4.969v19.439
		c2.208,0.337,3.816,0.553,4.824,0.648c1.008,0.097,2.328,0.145,3.96,0.145h3.312c2.543,0,4.535-0.305,5.976-0.914
		s3.407-1.865,5.904-3.766l-3.384,10.008H193.043z"/>
	<path d="M244.279,27.86c0-3.516,1.146-6.375,3.441-8.58
		c2.293-2.205,5.252-3.308,8.879-3.308c3.584,0,6.486,1.108,8.705,3.323s3.328,5.123,3.328,8.725c0,3.664-1.1,6.594-3.297,8.789
		c-2.197,2.193-5.131,3.291-8.801,3.291c-3.646,0-6.602-1.129-8.863-3.389C245.41,34.454,244.279,31.502,244.279,27.86z
		 M247.863,27.7v0.416c0,2.77,0.891,5.074,2.672,6.916c1.781,1.844,3.953,2.764,6.514,2.764c2.346,0,4.281-0.867,5.807-2.604
		s2.289-3.955,2.289-6.66c0-2.834-0.844-5.213-2.529-7.141s-3.775-2.891-6.271-2.891c-2.539,0-4.586,0.84-6.145,2.523
		C248.642,22.706,247.863,24.932,247.863,27.7z"/>
	<path d="M270.328,39.524c0.369-0.256,0.646-0.465,0.832-0.625s0.344-0.346,0.473-0.559
		l0.229-0.672c0.021-0.043,0.039-0.107,0.049-0.193c0.012-0.084,0.027-0.17,0.051-0.256V18.948l-0.098-0.447
		c-0.021-0.277-0.068-0.514-0.143-0.705c-0.076-0.191-0.357-0.641-0.85-1.344h12v4.416c-0.445-0.768-0.896-1.264-1.354-1.488
		s-1.217-0.336-2.277-0.336h-3.855v6.752h5.408v3.648c-0.488-0.555-0.924-0.906-1.305-1.057c-0.383-0.148-1.092-0.223-2.131-0.223
		h-1.973v9.055l0.127,0.449l0.225,0.672c0.17,0.32,0.598,0.715,1.279,1.184H270.328z"/>
	<path d="M290.273,2.08h11.09l15.348,42.946l12.889-37.325l0.059-0.432
		c0-1.729-1.439-3.458-4.32-5.188h9.576l15.602,43.929l13.404-38.316l0.082-1.151c0-0.816-0.18-1.5-0.539-2.051
		c-0.361-0.551-1.189-1.356-2.484-2.411h11.664l-19.729,53.928l-1.014-0.36l-3.402-1.706c-2.363-1.279-3.955-3.057-4.775-5.333
		l-1.098-3.306l-10.049-26.786l-13.432,37.13c-1.209-0.526-2.164-0.981-2.865-1.363s-1.438-0.86-2.211-1.436
		c-1.982-1.483-3.24-2.942-3.771-4.378l-0.852-2.38L294.783,7.633l-0.572-1.009c-0.238-0.529-0.512-1.01-0.824-1.442
		C293.078,4.75,292.041,3.716,290.273,2.08z"/>
	<path d="M361.048,53.993c2.016-1.104,3.383-2.017,4.104-2.736l1.799-2.448l16.922-41.04
		c0.287-0.671,0.432-1.368,0.432-2.088s-0.576-1.919-1.729-3.6h11.52l18.803,46.723l0.566,1.014l1.225,1.439
		c0.432,0.432,0.947,0.853,1.547,1.26c0.6,0.408,1.477,0.9,2.629,1.477H402.16c1.775-1.15,2.664-2.373,2.664-3.668
		c0-0.623-0.078-1.126-0.232-1.51l-5.799-15.055h-19.174l-5.805,15.027c-0.111,0.387-0.166,0.867-0.166,1.445
		c0,1.351,0.816,2.603,2.447,3.76H361.048z M389.328,8.708l-7.619,19.797h15.107L389.328,8.708z"/>
	<path d="M424.648,53.993c1.15-0.818,1.979-1.625,2.482-2.42
		c0.504-0.793,0.756-1.721,0.756-2.78V7.552l-0.219-0.982l-0.443-1.474c-0.246-0.514-0.566-0.982-0.959-1.403
		c-0.639-0.655-1.154-1.192-1.547-1.613h15.553c5.473,0,9.852,1.236,13.141,3.707c3.287,2.47,4.932,5.745,4.932,9.822
		c0,3.359-1.127,6.166-3.379,8.421c-1.248,1.152-2.566,2.051-3.957,2.699s-3.428,1.284-6.111,1.907l5.225,6.306
		c1.197,1.539,2.775,3.367,4.738,5.484c1.771,1.876,3.807,3.945,6.104,6.205c2.059,1.973,3.709,3.428,4.955,4.366
		c1.244,0.938,2.92,1.937,5.025,2.995h-8.352h-2.16c-0.674,0-1.297-0.133-1.873-0.396c-0.574-0.264-1.393-0.779-2.447-1.548
		l-1.439-1.009c-2.258-1.918-4.992-5.062-8.209-9.432l-7.703-10.367l-2.736-4.104c9.455-1.296,14.184-5.015,14.184-11.16
		c0-5.616-4.08-8.424-12.24-8.424h-2.664V48.8c0,1.011,0.24,1.888,0.721,2.632c0.479,0.746,1.367,1.6,2.664,2.561H424.648z"/>
</svg>
